# xmcd
#
# Track frame offsets:
#	150
#	16055
#	32627
#	48547
#	65902
#	81515
#	94430
#	110867
#	123877
#	141700
#	158387
#	177482
#
# Disc length: 2585 seconds
#
# Revision: 1
# Processed by: cddbd v1.5.2PL0 Copyright (c) Steve Scherf et al.
# Submitted via: audiograbber 1.83.01
#
DISCID=ae0a170c
DTITLE=Neil Wuddy - Buckshott
DYEAR=1900
DGENRE=
TTITLE0=Neil Wuddy Track  1 Bull Ride
TTITLE1=Neil Wuddy Track  2 Rockin Good Way
TTITLE2=Neil Wuddy Track  3 I've Never Felt So Blue
TTITLE3=Neil Wuddy Track  4 Buckles Belts and Boots
TTITLE4=Neil Wuddy Track  5 Were In the Real World
TTITLE5=Neil Wuddy Track  6 Daddy's Money
TTITLE6=Neil Wuddy Track  7 Fly Like A Bird
TTITLE7=Neil Wuddy Track  8 I Love A Rainy Night
TTITLE8=Neil Wuddy Track  9 The Lady I Adore
TTITLE9=Neil Wuddy Track 10 Good Hearted Woman
TTITLE10=Neil Wuddy Track 11 Elvira
TTITLE11=Neil Wuddy Track 12 That's What I Like
EXTD=
EXTT0=
EXTT1=
EXTT2=
EXTT3=
EXTT4=
EXTT5=
EXTT6=
EXTT7=
EXTT8=
EXTT9=
EXTT10=
EXTT11=
PLAYORDER=
